<svg width="175" height="40" viewBox="0 0 175 40" fill="none" xmlns="http://www.w3.org/2000/svg">
<rect width="175" height="40" rx="7" fill="#8D54DC"/>
<rect x="0.5" y="0.5" width="174" height="39" rx="6.5" stroke="#C1C1C1" stroke-opacity="0.258824"/>
<path d="M42.4353 30.1354C42.4353 26.3833 38.252 23.3333 34.4999 23.3333C30.7478 23.3333 26.5645 26.3833 26.5645 30.1354M34.4999 19.9333C35.7025 19.9333 36.8558 19.4556 37.7062 18.6052C38.5565 17.7549 39.0342 16.6015 39.0342 15.399C39.0342 14.1964 38.5565 13.043 37.7062 12.1927C36.8558 11.3423 35.7025 10.8646 34.4999 10.8646C33.2973 10.8646 32.1439 11.3423 31.2936 12.1927C30.4432 13.043 29.9655 14.1964 29.9655 15.399C29.9655 16.6015 30.4432 17.7549 31.2936 18.6052C32.1439 19.4556 33.2973 19.9333 34.4999 19.9333Z" stroke="#F4F4F4" stroke-width="1.5" stroke-linecap="round" stroke-linejoin="round"/>
<mask id="path-5-outside-1_59_2" maskUnits="userSpaceOnUse" x="65" y="14" width="47" height="14" fill="black">
<rect fill="white" x="65" y="14" width="47" height="14"/>
<path d="M66.7771 26V15.088H67.6251V26H66.7771ZM67.3211 26V25.232H73.8811V26H67.3211ZM67.3211 20.768V20.032H73.3851V20.768H67.3211ZM67.3211 15.856V15.088H73.8011V15.856H67.3211ZM81.5109 26V21.584C81.5109 20.8587 81.2976 20.272 80.8709 19.824C80.4443 19.376 79.8789 19.152 79.1749 19.152C78.6949 19.152 78.2683 19.2587 77.8949 19.472C77.5323 19.6747 77.2443 19.9573 77.0309 20.32C76.8283 20.6827 76.7269 21.104 76.7269 21.584L76.3109 21.344C76.3109 20.7787 76.4443 20.2773 76.7109 19.84C76.9776 19.392 77.3403 19.04 77.7989 18.784C78.2576 18.528 78.7803 18.4 79.3669 18.4C79.9536 18.4 80.4656 18.5387 80.9029 18.816C81.3509 19.0827 81.6976 19.4507 81.9429 19.92C82.1883 20.3893 82.3109 20.912 82.3109 21.488V26H81.5109ZM75.9109 26V18.56H76.7269V26H75.9109ZM85.6414 26V15.408H86.4574V26H85.6414ZM83.7214 19.28V18.56H88.3774V19.28H83.7214ZM90.0203 26V18.56H90.8363V26H90.0203ZM90.8363 21.552L90.4363 21.408C90.4363 20.4587 90.6763 19.7227 91.1563 19.2C91.6363 18.6667 92.2656 18.4 93.0443 18.4C93.407 18.4 93.743 18.464 94.0523 18.592C94.3723 18.72 94.6656 18.928 94.9323 19.216L94.3883 19.792C94.1856 19.568 93.967 19.408 93.7323 19.312C93.4976 19.216 93.2203 19.168 92.9003 19.168C92.2923 19.168 91.7963 19.376 91.4123 19.792C91.0283 20.1973 90.8363 20.784 90.8363 21.552ZM99.2851 26.16C98.5704 26.16 97.9251 25.9893 97.3491 25.648C96.7837 25.3067 96.3357 24.848 96.0051 24.272C95.6744 23.6853 95.5091 23.024 95.5091 22.288C95.5091 21.5627 95.6744 20.9067 96.0051 20.32C96.3357 19.7333 96.7837 19.2693 97.3491 18.928C97.9144 18.576 98.5491 18.4 99.2531 18.4C99.8291 18.4 100.341 18.512 100.789 18.736C101.248 18.9493 101.621 19.2533 101.909 19.648C102.208 20.0427 102.4 20.512 102.485 21.056V23.488C102.389 24.032 102.192 24.5067 101.893 24.912C101.605 25.3067 101.237 25.616 100.789 25.84C100.352 26.0533 99.8504 26.16 99.2851 26.16ZM99.3971 25.392C100.25 25.392 100.928 25.1093 101.429 24.544C101.941 23.968 102.197 23.216 102.197 22.288C102.197 21.6587 102.08 21.1147 101.845 20.656C101.621 20.1867 101.296 19.824 100.869 19.568C100.442 19.3013 99.9464 19.168 99.3811 19.168C98.7944 19.168 98.2717 19.3013 97.8131 19.568C97.3651 19.8347 97.0077 20.2027 96.7411 20.672C96.4851 21.1413 96.3571 21.6747 96.3571 22.272C96.3571 22.88 96.4851 23.4187 96.7411 23.888C97.0077 24.3573 97.3704 24.7253 97.8291 24.992C98.2877 25.2587 98.8104 25.392 99.3971 25.392ZM102.165 26V24L102.341 22.176L102.165 20.368V18.56H102.981V26H102.165ZM105.38 26V18.56H106.196V26H105.38ZM106.196 21.552L105.796 21.408C105.796 20.4587 106.036 19.7227 106.516 19.2C106.996 18.6667 107.625 18.4 108.404 18.4C108.766 18.4 109.102 18.464 109.412 18.592C109.732 18.72 110.025 18.928 110.292 19.216L109.748 19.792C109.545 19.568 109.326 19.408 109.092 19.312C108.857 19.216 108.58 19.168 108.26 19.168C107.652 19.168 107.156 19.376 106.772 19.792C106.388 20.1973 106.196 20.784 106.196 21.552Z"/>
</mask>
<path d="M66.7771 26V15.088H67.6251V26H66.7771ZM67.3211 26V25.232H73.8811V26H67.3211ZM67.3211 20.768V20.032H73.3851V20.768H67.3211ZM67.3211 15.856V15.088H73.8011V15.856H67.3211ZM81.5109 26V21.584C81.5109 20.8587 81.2976 20.272 80.8709 19.824C80.4443 19.376 79.8789 19.152 79.1749 19.152C78.6949 19.152 78.2683 19.2587 77.8949 19.472C77.5323 19.6747 77.2443 19.9573 77.0309 20.32C76.8283 20.6827 76.7269 21.104 76.7269 21.584L76.3109 21.344C76.3109 20.7787 76.4443 20.2773 76.7109 19.84C76.9776 19.392 77.3403 19.04 77.7989 18.784C78.2576 18.528 78.7803 18.4 79.3669 18.4C79.9536 18.4 80.4656 18.5387 80.9029 18.816C81.3509 19.0827 81.6976 19.4507 81.9429 19.92C82.1883 20.3893 82.3109 20.912 82.3109 21.488V26H81.5109ZM75.9109 26V18.56H76.7269V26H75.9109ZM85.6414 26V15.408H86.4574V26H85.6414ZM83.7214 19.28V18.56H88.3774V19.28H83.7214ZM90.0203 26V18.56H90.8363V26H90.0203ZM90.8363 21.552L90.4363 21.408C90.4363 20.4587 90.6763 19.7227 91.1563 19.2C91.6363 18.6667 92.2656 18.4 93.0443 18.4C93.407 18.4 93.743 18.464 94.0523 18.592C94.3723 18.72 94.6656 18.928 94.9323 19.216L94.3883 19.792C94.1856 19.568 93.967 19.408 93.7323 19.312C93.4976 19.216 93.2203 19.168 92.9003 19.168C92.2923 19.168 91.7963 19.376 91.4123 19.792C91.0283 20.1973 90.8363 20.784 90.8363 21.552ZM99.2851 26.16C98.5704 26.16 97.9251 25.9893 97.3491 25.648C96.7837 25.3067 96.3357 24.848 96.0051 24.272C95.6744 23.6853 95.5091 23.024 95.5091 22.288C95.5091 21.5627 95.6744 20.9067 96.0051 20.32C96.3357 19.7333 96.7837 19.2693 97.3491 18.928C97.9144 18.576 98.5491 18.4 99.2531 18.4C99.8291 18.4 100.341 18.512 100.789 18.736C101.248 18.9493 101.621 19.2533 101.909 19.648C102.208 20.0427 102.4 20.512 102.485 21.056V23.488C102.389 24.032 102.192 24.5067 101.893 24.912C101.605 25.3067 101.237 25.616 100.789 25.84C100.352 26.0533 99.8504 26.16 99.2851 26.16ZM99.3971 25.392C100.25 25.392 100.928 25.1093 101.429 24.544C101.941 23.968 102.197 23.216 102.197 22.288C102.197 21.6587 102.08 21.1147 101.845 20.656C101.621 20.1867 101.296 19.824 100.869 19.568C100.442 19.3013 99.9464 19.168 99.3811 19.168C98.7944 19.168 98.2717 19.3013 97.8131 19.568C97.3651 19.8347 97.0077 20.2027 96.7411 20.672C96.4851 21.1413 96.3571 21.6747 96.3571 22.272C96.3571 22.88 96.4851 23.4187 96.7411 23.888C97.0077 24.3573 97.3704 24.7253 97.8291 24.992C98.2877 25.2587 98.8104 25.392 99.3971 25.392ZM102.165 26V24L102.341 22.176L102.165 20.368V18.56H102.981V26H102.165ZM105.38 26V18.56H106.196V26H105.38ZM106.196 21.552L105.796 21.408C105.796 20.4587 106.036 19.7227 106.516 19.2C106.996 18.6667 107.625 18.4 108.404 18.4C108.766 18.4 109.102 18.464 109.412 18.592C109.732 18.72 110.025 18.928 110.292 19.216L109.748 19.792C109.545 19.568 109.326 19.408 109.092 19.312C108.857 19.216 108.58 19.168 108.26 19.168C107.652 19.168 107.156 19.376 106.772 19.792C106.388 20.1973 106.196 20.784 106.196 21.552Z" fill="#F4F4F4"/>
<path d="M66.7771 26H65.7771V27H66.7771V26ZM66.7771 15.088V14.088H65.7771V15.088H66.7771ZM67.6251 15.088H68.6251V14.088H67.6251V15.088ZM67.6251 26V27H68.6251V26H67.6251ZM67.3211 26H66.3211V27H67.3211V26ZM67.3211 25.232V24.232H66.3211V25.232H67.3211ZM73.8811 25.232H74.8811V24.232H73.8811V25.232ZM73.8811 26V27H74.8811V26H73.8811ZM67.3211 20.768H66.3211V21.768H67.3211V20.768ZM67.3211 20.032V19.032H66.3211V20.032H67.3211ZM73.3851 20.032H74.3851V19.032H73.3851V20.032ZM73.3851 20.768V21.768H74.3851V20.768H73.3851ZM67.3211 15.856H66.3211V16.856H67.3211V15.856ZM67.3211 15.088V14.088H66.3211V15.088H67.3211ZM73.8011 15.088H74.8011V14.088H73.8011V15.088ZM73.8011 15.856V16.856H74.8011V15.856H73.8011ZM67.7771 26V15.088H65.7771V26H67.7771ZM66.7771 16.088H67.6251V14.088H66.7771V16.088ZM66.6251 15.088V26H68.6251V15.088H66.6251ZM67.6251 25H66.7771V27H67.6251V25ZM68.3211 26V25.232H66.3211V26H68.3211ZM67.3211 26.232H73.8811V24.232H67.3211V26.232ZM72.8811 25.232V26H74.8811V25.232H72.8811ZM73.8811 25H67.3211V27H73.8811V25ZM68.3211 20.768V20.032H66.3211V20.768H68.3211ZM67.3211 21.032H73.3851V19.032H67.3211V21.032ZM72.3851 20.032V20.768H74.3851V20.032H72.3851ZM73.3851 19.768H67.3211V21.768H73.3851V19.768ZM68.3211 15.856V15.088H66.3211V15.856H68.3211ZM67.3211 16.088H73.8011V14.088H67.3211V16.088ZM72.8011 15.088V15.856H74.8011V15.088H72.8011ZM73.8011 14.856H67.3211V16.856H73.8011V14.856ZM81.5109 26H80.5109V27H81.5109V26ZM80.8709 19.824L80.1468 20.5137L80.8709 19.824ZM77.8949 19.472L78.3828 20.345L78.3911 20.3402L77.8949 19.472ZM77.0309 20.32L76.169 19.813L76.1634 19.8225L76.158 19.8322L77.0309 20.32ZM76.7269 21.584L76.2272 22.4502L77.7269 23.3154V21.584H76.7269ZM76.3109 21.344H75.3109V21.9216L75.8112 22.2102L76.3109 21.344ZM76.7109 19.84L77.5648 20.3606L77.5702 20.3515L76.7109 19.84ZM77.7989 18.784L77.3116 17.9108L77.3116 17.9108L77.7989 18.784ZM80.9029 18.816L80.3674 19.6605L80.3793 19.6681L80.3915 19.6753L80.9029 18.816ZM82.3109 26V27H83.3109V26H82.3109ZM75.9109 26H74.9109V27H75.9109V26ZM75.9109 18.56V17.56H74.9109V18.56H75.9109ZM76.7269 18.56H77.7269V17.56H76.7269V18.56ZM76.7269 26V27H77.7269V26H76.7269ZM82.5109 26V21.584H80.5109V26H82.5109ZM82.5109 21.584C82.5109 20.6493 82.229 19.8 81.5951 19.1343L80.1468 20.5137C80.3662 20.744 80.5109 21.0681 80.5109 21.584H82.5109ZM81.5951 19.1343C80.9529 18.4601 80.1112 18.152 79.1749 18.152V20.152C79.6466 20.152 79.9356 20.2919 80.1468 20.5137L81.5951 19.1343ZM79.1749 18.152C78.5416 18.152 77.9402 18.2944 77.3988 18.6038L78.3911 20.3402C78.5963 20.223 78.8483 20.152 79.1749 20.152V18.152ZM77.4071 18.5991C76.8874 18.8895 76.4711 19.2993 76.169 19.813L77.8929 20.827C78.0174 20.6153 78.1771 20.4599 78.3828 20.3449L77.4071 18.5991ZM76.158 19.8322C75.8599 20.3657 75.7269 20.96 75.7269 21.584H77.7269C77.7269 21.248 77.7967 20.9996 77.9039 20.8078L76.158 19.8322ZM77.2267 20.7178L76.8107 20.4778L75.8112 22.2102L76.2272 22.4502L77.2267 20.7178ZM77.3109 21.344C77.3109 20.9427 77.4034 20.6252 77.5647 20.3606L75.8571 19.3194C75.4851 19.9295 75.3109 20.6146 75.3109 21.344H77.3109ZM77.5702 20.3515C77.7462 20.0559 77.9801 19.8281 78.2863 19.6572L77.3116 17.9108C76.7005 18.2519 76.209 18.7281 75.8516 19.3285L77.5702 20.3515ZM78.2863 19.6572C78.5792 19.4937 78.9305 19.4 79.3669 19.4V17.4C78.63 17.4 77.936 17.5623 77.3116 17.9108L78.2863 19.6572ZM79.3669 19.4C79.7898 19.4 80.1108 19.4978 80.3674 19.6605L81.4385 17.9715C80.8204 17.5796 80.1174 17.4 79.3669 17.4V19.4ZM80.3915 19.6753C80.6776 19.8456 80.8958 20.0754 81.0567 20.3833L82.8292 19.4567C82.4994 18.826 82.0242 18.3197 81.4144 17.9567L80.3915 19.6753ZM81.0567 20.3833C81.2209 20.6973 81.3109 21.0589 81.3109 21.488H83.3109C83.3109 20.7651 83.1557 20.0813 82.8292 19.4567L81.0567 20.3833ZM81.3109 21.488V26H83.3109V21.488H81.3109ZM82.3109 25H81.5109V27H82.3109V25ZM76.9109 26V18.56H74.9109V26H76.9109ZM75.9109 19.56H76.7269V17.56H75.9109V19.56ZM75.7269 18.56V26H77.7269V18.56H75.7269ZM76.7269 25H75.9109V27H76.7269V25ZM85.6414 26H84.6414V27H85.6414V26ZM85.6414 15.408V14.408H84.6414V15.408H85.6414ZM86.4574 15.408H87.4574V14.408H86.4574V15.408ZM86.4574 26V27H87.4574V26H86.4574ZM83.7214 19.28H82.7214V20.28H83.7214V19.28ZM83.7214 18.56V17.56H82.7214V18.56H83.7214ZM88.3774 18.56H89.3774V17.56H88.3774V18.56ZM88.3774 19.28V20.28H89.3774V19.28H88.3774ZM86.6414 26V15.408H84.6414V26H86.6414ZM85.6414 16.408H86.4574V14.408H85.6414V16.408ZM85.4574 15.408V26H87.4574V15.408H85.4574ZM86.4574 25H85.6414V27H86.4574V25ZM84.7214 19.28V18.56H82.7214V19.28H84.7214ZM83.7214 19.56H88.3774V17.56H83.7214V19.56ZM87.3774 18.56V19.28H89.3774V18.56H87.3774ZM88.3774 18.28H83.7214V20.28H88.3774V18.28ZM90.0203 26H89.0203V27H90.0203V26ZM90.0203 18.56V17.56H89.0203V18.56H90.0203ZM90.8363 18.56H91.8363V17.56H90.8363V18.56ZM90.8363 26V27H91.8363V26H90.8363ZM90.8363 21.552L90.4976 22.4929L91.8363 22.9748V21.552H90.8363ZM90.4363 21.408H89.4363V22.1108L90.0976 22.3489L90.4363 21.408ZM91.1563 19.2L91.8929 19.8764L91.8996 19.869L91.1563 19.2ZM94.0523 18.592L93.6699 19.5161L93.6809 19.5205L94.0523 18.592ZM94.9323 19.216L95.6593 19.9026L96.3014 19.2228L95.6661 18.5366L94.9323 19.216ZM94.3883 19.792L93.6468 20.4629L94.3726 21.2651L95.1153 20.4786L94.3883 19.792ZM93.7323 19.312L93.3537 20.2375L93.7323 19.312ZM91.4123 19.792L92.1383 20.4798L92.1471 20.4703L91.4123 19.792ZM91.0203 26V18.56H89.0203V26H91.0203ZM90.0203 19.56H90.8363V17.56H90.0203V19.56ZM89.8363 18.56V26H91.8363V18.56H89.8363ZM90.8363 25H90.0203V27H90.8363V25ZM91.175 20.6111L90.775 20.4671L90.0976 22.3489L90.4976 22.4929L91.175 20.6111ZM91.4363 21.408C91.4363 20.623 91.6327 20.1596 91.8928 19.8764L90.4198 18.5236C89.7199 19.2857 89.4363 20.2944 89.4363 21.408H91.4363ZM91.8996 19.869C92.1726 19.5657 92.522 19.4 93.0443 19.4V17.4C92.0093 17.4 91.1001 17.7677 90.413 18.531L91.8996 19.869ZM93.0443 19.4C93.2868 19.4 93.4916 19.4422 93.67 19.516L94.4347 17.668C93.9943 17.4858 93.5272 17.4 93.0443 17.4V19.4ZM93.6809 19.5205C93.8452 19.5862 94.0187 19.7011 94.1986 19.8954L95.6661 18.5366C95.3126 18.1549 94.8994 17.8538 94.4237 17.6635L93.6809 19.5205ZM94.2053 18.5294L93.6613 19.1054L95.1153 20.4786L95.6593 19.9026L94.2053 18.5294ZM95.1298 19.1211C94.8458 18.8071 94.5081 18.5489 94.1109 18.3865L93.3537 20.2375C93.4258 20.2671 93.5255 20.3289 93.6468 20.4629L95.1298 19.1211ZM94.1109 18.3865C93.7291 18.2302 93.3174 18.168 92.9003 18.168V20.168C93.1232 20.168 93.2662 20.2018 93.3537 20.2375L94.1109 18.3865ZM92.9003 18.168C92.0363 18.168 91.266 18.4762 90.6775 19.1137L92.1471 20.4703C92.3267 20.2758 92.5483 20.168 92.9003 20.168V18.168ZM90.6864 19.1043C90.0692 19.7557 89.8363 20.6255 89.8363 21.552H91.8363C91.8363 20.9425 91.9874 20.639 92.1383 20.4797L90.6864 19.1043ZM97.3491 25.648L96.8322 26.5041L96.8393 26.5083L97.3491 25.648ZM96.0051 24.272L95.1339 24.763L95.1378 24.7699L96.0051 24.272ZM96.0051 20.32L95.1339 19.829L96.0051 20.32ZM97.3491 18.928L97.866 19.7841L97.8776 19.7769L97.3491 18.928ZM100.789 18.736L100.342 19.6304L100.355 19.6368L100.367 19.6427L100.789 18.736ZM101.909 19.648L101.101 20.2375L101.106 20.2445L101.112 20.2514L101.909 19.648ZM102.485 21.056H103.485V20.978L103.473 20.901L102.485 21.056ZM102.485 23.488L103.47 23.6618L103.485 23.5756V23.488H102.485ZM101.893 24.912L101.088 24.3188L101.085 24.3225L101.893 24.912ZM100.789 25.84L101.228 26.7388L101.236 26.7344L100.789 25.84ZM101.429 24.544L100.682 23.8796L100.681 23.8805L101.429 24.544ZM101.845 20.656L100.943 21.0867L100.949 21.0992L100.955 21.1115L101.845 20.656ZM100.869 19.568L100.339 20.416L100.347 20.4208L100.355 20.4255L100.869 19.568ZM97.8131 19.568L97.3104 18.7034L97.3016 18.7087L97.8131 19.568ZM96.7411 20.672L95.8716 20.178L95.8673 20.1855L95.8632 20.1931L96.7411 20.672ZM96.7411 23.888L95.8632 24.3669L95.8673 24.3745L95.8716 24.382L96.7411 23.888ZM97.8291 24.992L98.3317 24.1275L97.8291 24.992ZM102.165 26H101.165V27H102.165V26ZM102.165 24L101.17 23.904L101.165 23.9519V24H102.165ZM102.341 22.176L103.336 22.272L103.346 22.1756L103.336 22.0791L102.341 22.176ZM102.165 20.368H101.165V20.4166L101.17 20.4649L102.165 20.368ZM102.165 18.56V17.56H101.165V18.56H102.165ZM102.981 18.56H103.981V17.56H102.981V18.56ZM102.981 26V27H103.981V26H102.981ZM99.2851 25.16C98.7372 25.16 98.2701 25.0314 97.8589 24.7877L96.8393 26.5083C97.58 26.9473 98.4036 27.16 99.2851 27.16V25.16ZM97.8659 24.7919C97.4468 24.5389 97.119 24.2038 96.8723 23.7741L95.1378 24.7699C95.5525 25.4922 96.1207 26.0745 96.8322 26.5041L97.8659 24.7919ZM96.8762 23.781C96.6377 23.3579 96.5091 22.8684 96.5091 22.288H94.5091C94.5091 23.1796 94.7111 24.0128 95.1339 24.763L96.8762 23.781ZM96.5091 22.288C96.5091 21.721 96.6365 21.2363 96.8762 20.811L95.1339 19.829C94.7123 20.577 94.5091 21.4043 94.5091 22.288H96.5091ZM96.8762 20.811C97.124 20.3714 97.4512 20.0345 97.8659 19.7841L96.8322 18.0719C96.1162 18.5042 95.5475 19.0952 95.1339 19.829L96.8762 20.811ZM97.8776 19.7769C98.2751 19.5294 98.7247 19.4 99.2531 19.4V17.4C98.3734 17.4 97.5537 17.6226 96.8205 18.0791L97.8776 19.7769ZM99.2531 19.4C99.6972 19.4 100.052 19.4856 100.342 19.6304L101.236 17.8416C100.63 17.5384 99.961 17.4 99.2531 17.4V19.4ZM100.367 19.6427C100.678 19.7873 100.917 19.9845 101.101 20.2375L102.717 19.0585C102.325 18.5222 101.817 18.1114 101.211 17.8293L100.367 19.6427ZM101.112 20.2514C101.3 20.5003 101.434 20.8112 101.497 21.211L103.473 20.901C103.365 20.2128 103.115 19.585 102.706 19.0446L101.112 20.2514ZM101.485 21.056V23.488H103.485V21.056H101.485ZM101.5 23.3142C101.428 23.7214 101.287 24.0492 101.088 24.3188L102.698 25.5052C103.097 24.9641 103.35 24.3426 103.47 23.6618L101.5 23.3142ZM101.085 24.3225C100.894 24.5849 100.651 24.7911 100.342 24.9456L101.236 26.7344C101.823 26.4409 102.316 26.0284 102.701 25.5015L101.085 24.3225ZM100.351 24.9412C100.07 25.078 99.723 25.16 99.2851 25.16V27.16C99.9778 27.16 100.633 27.0287 101.227 26.7388L100.351 24.9412ZM99.3971 26.392C100.495 26.392 101.46 26.0158 102.177 25.2075L100.681 23.8805C100.395 24.2029 100.005 24.392 99.3971 24.392V26.392ZM102.176 25.2084C102.883 24.4135 103.197 23.4084 103.197 22.288H101.197C101.197 23.0236 100.999 23.5225 100.682 23.8796L102.176 25.2084ZM103.197 22.288C103.197 21.5349 103.056 20.828 102.735 20.2005L100.955 21.1115C101.103 21.4013 101.197 21.7825 101.197 22.288H103.197ZM102.748 20.2253C102.443 19.5871 101.987 19.0723 101.384 18.7105L100.355 20.4255C100.605 20.5757 100.799 20.7862 100.943 21.0867L102.748 20.2253ZM101.399 18.72C100.794 18.3421 100.11 18.168 99.3811 18.168V20.168C99.7828 20.168 100.09 20.2606 100.339 20.416L101.399 18.72ZM99.3811 18.168C98.637 18.168 97.9375 18.3389 97.3104 18.7035L98.3157 20.4325C98.606 20.2637 98.9518 20.168 99.3811 20.168V18.168ZM97.3016 18.7087C96.6992 19.0673 96.2208 19.5635 95.8716 20.178L97.6105 21.166C97.7947 20.8418 98.0309 20.6021 98.3245 20.4273L97.3016 18.7087ZM95.8632 20.1931C95.518 20.826 95.3571 21.5273 95.3571 22.272H97.3571C97.3571 21.822 97.4521 21.4567 97.619 21.1509L95.8632 20.1931ZM95.3571 22.272C95.3571 23.0241 95.5166 23.7315 95.8632 24.3669L97.619 23.4091C97.4535 23.1058 97.3571 22.7359 97.3571 22.272H95.3571ZM95.8716 24.382C96.224 25.0023 96.7121 25.4993 97.3264 25.8565L98.3317 24.1275C98.0287 23.9513 97.7914 23.7124 97.6105 23.394L95.8716 24.382ZM97.3264 25.8565C97.9535 26.2211 98.653 26.392 99.3971 26.392V24.392C98.9678 24.392 98.622 24.2963 98.3317 24.1275L97.3264 25.8565ZM103.165 26V24H101.165V26H103.165ZM103.16 24.096L103.336 22.272L101.346 22.08L101.17 23.904L103.16 24.096ZM103.336 22.0791L103.16 20.2711L101.17 20.4649L101.346 22.2729L103.336 22.0791ZM103.165 20.368V18.56H101.165V20.368H103.165ZM102.165 19.56H102.981V17.56H102.165V19.56ZM101.981 18.56V26H103.981V18.56H101.981ZM102.981 25H102.165V27H102.981V25ZM105.38 26H104.38V27H105.38V26ZM105.38 18.56V17.56H104.38V18.56H105.38ZM106.196 18.56H107.196V17.56H106.196V18.56ZM106.196 26V27H107.196V26H106.196ZM106.196 21.552L105.857 22.4929L107.196 22.9748V21.552H106.196ZM105.796 21.408H104.796V22.1108L105.457 22.3489L105.796 21.408ZM106.516 19.2L107.252 19.8764L107.259 19.869L106.516 19.2ZM109.412 18.592L109.029 19.5161L109.04 19.5205L109.412 18.592ZM110.292 19.216L111.019 19.9026L111.661 19.2228L111.025 18.5366L110.292 19.216ZM109.748 19.792L109.006 20.4629L109.732 21.2651L110.475 20.4786L109.748 19.792ZM109.092 19.312L108.713 20.2375L109.092 19.312ZM106.772 19.792L107.498 20.4798L107.506 20.4703L106.772 19.792ZM106.38 26V18.56H104.38V26H106.38ZM105.38 19.56H106.196V17.56H105.38V19.56ZM105.196 18.56V26H107.196V18.56H105.196ZM106.196 25H105.38V27H106.196V25ZM106.534 20.6111L106.134 20.4671L105.457 22.3489L105.857 22.4929L106.534 20.6111ZM106.796 21.408C106.796 20.623 106.992 20.1596 107.252 19.8764L105.779 18.5236C105.079 19.2857 104.796 20.2944 104.796 21.408H106.796ZM107.259 19.869C107.532 19.5657 107.881 19.4 108.404 19.4V17.4C107.369 17.4 106.459 17.7677 105.772 18.531L107.259 19.869ZM108.404 19.4C108.646 19.4 108.851 19.4422 109.029 19.516L109.794 17.668C109.354 17.4858 108.887 17.4 108.404 17.4V19.4ZM109.04 19.5205C109.205 19.5862 109.378 19.7011 109.558 19.8954L111.025 18.5366C110.672 18.1549 110.259 17.8538 109.783 17.6635L109.04 19.5205ZM109.565 18.5294L109.021 19.1054L110.475 20.4786L111.019 19.9026L109.565 18.5294ZM110.489 19.1211C110.205 18.8071 109.868 18.5489 109.47 18.3865L108.713 20.2375C108.785 20.2671 108.885 20.3289 109.006 20.4629L110.489 19.1211ZM109.47 18.3865C109.088 18.2302 108.677 18.168 108.26 18.168V20.168C108.483 20.168 108.626 20.2018 108.713 20.2375L109.47 18.3865ZM108.26 18.168C107.396 18.168 106.625 18.4762 106.037 19.1137L107.506 20.4703C107.686 20.2758 107.908 20.168 108.26 20.168V18.168ZM106.046 19.1043C105.429 19.7557 105.196 20.6255 105.196 21.552H107.196C107.196 20.9425 107.347 20.639 107.498 20.4797L106.046 19.1043Z" fill="#C1C1C1" fill-opacity="0.258824" mask="url(#path-5-outside-1_59_2)"/>
</svg>
