<svg width="175" height="40" viewBox="0 0 175 40" fill="none" xmlns="http://www.w3.org/2000/svg">
<rect width="175" height="40" rx="7" fill="#8D54DC"/>
<path d="M68.7229 26.16C67.8696 26.16 67.1336 26 66.5149 25.68C65.8963 25.3493 65.3629 24.896 64.9149 24.32L65.5069 23.744C65.9229 24.3093 66.3923 24.7253 66.9149 24.992C67.4483 25.248 68.0616 25.376 68.7549 25.376C69.5016 25.376 70.1096 25.2 70.5789 24.848C71.0483 24.496 71.2829 24.0053 71.2829 23.376C71.2829 22.896 71.1816 22.5067 70.9789 22.208C70.7763 21.9093 70.5043 21.664 70.1629 21.472C69.8323 21.28 69.4643 21.1093 69.0589 20.96C68.6643 20.8107 68.2643 20.6613 67.8589 20.512C67.4643 20.352 67.1016 20.16 66.7709 19.936C66.4403 19.7013 66.1683 19.4027 65.9549 19.04C65.7523 18.6773 65.6509 18.2187 65.6509 17.664C65.6509 17.1093 65.7843 16.6293 66.0509 16.224C66.3283 15.808 66.7016 15.488 67.1709 15.264C67.6509 15.04 68.2003 14.928 68.8189 14.928C69.5229 14.928 70.1523 15.0667 70.7069 15.344C71.2616 15.6107 71.7256 15.9893 72.0989 16.48L71.5069 17.056C71.1549 16.6187 70.7603 16.288 70.3229 16.064C69.8963 15.8293 69.3896 15.712 68.8029 15.712C68.1203 15.712 67.5656 15.8827 67.1389 16.224C66.7229 16.5547 66.5149 17.0187 66.5149 17.616C66.5149 18.064 66.6163 18.4267 66.8189 18.704C67.0216 18.9813 67.2883 19.216 67.6189 19.408C67.9603 19.5893 68.3283 19.7493 68.7229 19.888C69.1283 20.0267 69.5283 20.176 69.9229 20.336C70.3176 20.496 70.6803 20.6987 71.0109 20.944C71.3523 21.1787 71.6243 21.4827 71.8269 21.856C72.0296 22.2293 72.1309 22.704 72.1309 23.28C72.1309 24.208 71.8216 24.9227 71.2029 25.424C70.5949 25.9147 69.7683 26.16 68.7229 26.16ZM77.3944 26.16C76.6798 26.16 76.0344 25.9893 75.4584 25.648C74.8931 25.3067 74.4451 24.848 74.1144 24.272C73.7838 23.6853 73.6184 23.024 73.6184 22.288C73.6184 21.5627 73.7838 20.9067 74.1144 20.32C74.4451 19.7333 74.8931 19.2693 75.4584 18.928C76.0238 18.576 76.6584 18.4 77.3624 18.4C77.9384 18.4 78.4504 18.512 78.8984 18.736C79.3571 18.9493 79.7304 19.2533 80.0184 19.648C80.3171 20.0427 80.5091 20.512 80.5944 21.056V23.488C80.4984 24.032 80.3011 24.5067 80.0024 24.912C79.7144 25.3067 79.3464 25.616 78.8984 25.84C78.4611 26.0533 77.9598 26.16 77.3944 26.16ZM77.5064 25.392C78.3598 25.392 79.0371 25.1093 79.5384 24.544C80.0504 23.968 80.3064 23.216 80.3064 22.288C80.3064 21.6587 80.1891 21.1147 79.9544 20.656C79.7304 20.1867 79.4051 19.824 78.9784 19.568C78.5518 19.3013 78.0558 19.168 77.4904 19.168C76.9038 19.168 76.3811 19.3013 75.9224 19.568C75.4744 19.8347 75.1171 20.2027 74.8504 20.672C74.5944 21.1413 74.4664 21.6747 74.4664 22.272C74.4664 22.88 74.5944 23.4187 74.8504 23.888C75.1171 24.3573 75.4798 24.7253 75.9384 24.992C76.3971 25.2587 76.9198 25.392 77.5064 25.392ZM80.2744 26V24L80.4504 22.176L80.2744 20.368V18.56H81.0904V26H80.2744ZM86.8651 26.16C86.1397 26.16 85.4837 25.9893 84.8971 25.648C84.3211 25.296 83.8624 24.8267 83.5211 24.24C83.1797 23.6427 83.0091 22.9813 83.0091 22.256C83.0091 21.5307 83.1797 20.88 83.5211 20.304C83.8624 19.7173 84.3211 19.2533 84.8971 18.912C85.4837 18.5707 86.1397 18.4 86.8651 18.4C87.4091 18.4 87.9211 18.5013 88.4011 18.704C88.8811 18.9067 89.2917 19.1947 89.6331 19.568L89.0891 20.112C88.8117 19.8133 88.4811 19.584 88.0971 19.424C87.7237 19.2533 87.3131 19.168 86.8651 19.168C86.2891 19.168 85.7717 19.3067 85.3131 19.584C84.8651 19.8507 84.5077 20.2133 84.2411 20.672C83.9744 21.1307 83.8411 21.6587 83.8411 22.256C83.8411 22.8533 83.9744 23.3867 84.2411 23.856C84.5077 24.3253 84.8651 24.6987 85.3131 24.976C85.7717 25.2533 86.2891 25.392 86.8651 25.392C87.3131 25.392 87.7291 25.312 88.1131 25.152C88.5077 24.9813 88.8437 24.7413 89.1211 24.432L89.6651 24.976C89.3131 25.3493 88.8917 25.6427 88.4011 25.856C87.9211 26.0587 87.4091 26.16 86.8651 26.16ZM94.6151 26.16C93.8897 26.16 93.2337 25.9893 92.6471 25.648C92.0711 25.296 91.6124 24.8267 91.2711 24.24C90.9297 23.6427 90.7591 22.9813 90.7591 22.256C90.7591 21.5307 90.9297 20.88 91.2711 20.304C91.6124 19.7173 92.0711 19.2533 92.6471 18.912C93.2337 18.5707 93.8897 18.4 94.6151 18.4C95.3297 18.4 95.9751 18.5707 96.5511 18.912C97.1377 19.2533 97.6017 19.7173 97.9431 20.304C98.2844 20.88 98.4551 21.5307 98.4551 22.256C98.4551 22.992 98.2844 23.6533 97.9431 24.24C97.6017 24.8267 97.1377 25.296 96.5511 25.648C95.9751 25.9893 95.3297 26.16 94.6151 26.16ZM94.6151 25.392C95.1804 25.392 95.6871 25.2533 96.1351 24.976C96.5937 24.6987 96.9511 24.3253 97.2071 23.856C97.4737 23.376 97.6071 22.8373 97.6071 22.24C97.6071 21.6533 97.4737 21.1307 97.2071 20.672C96.9511 20.2133 96.5937 19.8507 96.1351 19.584C95.6871 19.3067 95.1804 19.168 94.6151 19.168C94.0391 19.168 93.5217 19.3067 93.0631 19.584C92.6151 19.8507 92.2577 20.2133 91.9911 20.672C91.7244 21.1307 91.5911 21.6587 91.5911 22.256C91.5911 22.8533 91.7244 23.3867 91.9911 23.856C92.2577 24.3253 92.6151 24.6987 93.0631 24.976C93.5217 25.2533 94.0391 25.392 94.6151 25.392ZM100.38 26V14.768H101.196V26H100.38ZM106.894 26.16C106.18 26.16 105.534 25.9893 104.958 25.648C104.393 25.3067 103.945 24.848 103.614 24.272C103.284 23.6853 103.118 23.024 103.118 22.288C103.118 21.5627 103.284 20.9067 103.614 20.32C103.945 19.7333 104.393 19.2693 104.958 18.928C105.524 18.576 106.158 18.4 106.862 18.4C107.438 18.4 107.95 18.512 108.398 18.736C108.857 18.9493 109.23 19.2533 109.518 19.648C109.817 20.0427 110.009 20.512 110.094 21.056V23.488C109.998 24.032 109.801 24.5067 109.502 24.912C109.214 25.3067 108.846 25.616 108.398 25.84C107.961 26.0533 107.46 26.16 106.894 26.16ZM107.006 25.392C107.86 25.392 108.537 25.1093 109.038 24.544C109.55 23.968 109.806 23.216 109.806 22.288C109.806 21.6587 109.689 21.1147 109.454 20.656C109.23 20.1867 108.905 19.824 108.478 19.568C108.052 19.3013 107.556 19.168 106.99 19.168C106.404 19.168 105.881 19.3013 105.422 19.568C104.974 19.8347 104.617 20.2027 104.35 20.672C104.094 21.1413 103.966 21.6747 103.966 22.272C103.966 22.88 104.094 23.4187 104.35 23.888C104.617 24.3573 104.98 24.7253 105.438 24.992C105.897 25.2587 106.42 25.392 107.006 25.392ZM109.774 26V24L109.95 22.176L109.774 20.368V18.56H110.59V26H109.774Z" fill="#F4F4F4"/>
<path d="M41.7915 15.2917H27.2082C26.9319 15.2917 26.667 15.4014 26.4716 15.5968C26.2763 15.7921 26.1665 16.0571 26.1665 16.3333V29.875C26.1665 30.1513 26.2763 30.4162 26.4716 30.6116C26.667 30.8069 26.9319 30.9167 27.2082 30.9167H41.7915C42.0678 30.9167 42.3327 30.8069 42.5281 30.6116C42.7234 30.4162 42.8332 30.1513 42.8332 29.875V16.3333C42.8332 16.0571 42.7234 15.7921 42.5281 15.5968C42.3327 15.4014 42.0678 15.2917 41.7915 15.2917Z" stroke="#F4F4F4" stroke-width="2" stroke-linecap="round" stroke-linejoin="round"/>
<path d="M30.854 17.375V13.7292C30.854 13.2504 30.9483 12.7763 31.1315 12.334C31.3147 11.8916 31.5833 11.4897 31.9218 11.1512C32.2604 10.8126 32.6623 10.5441 33.1046 10.3609C33.547 10.1776 34.0211 10.0833 34.4998 10.0833C34.9786 10.0833 35.4527 10.1776 35.895 10.3609C36.3374 10.5441 36.7393 10.8126 37.0778 11.1512C37.4164 11.4897 37.6849 11.8916 37.8681 12.334C38.0514 12.7763 38.1457 13.2504 38.1457 13.7292V17.375" stroke="#F4F4F4" stroke-width="2" stroke-linecap="round" stroke-linejoin="round"/>
</svg>
