<svg width="25" height="25" viewBox="0 0 25 25" fill="none" xmlns="http://www.w3.org/2000/svg">
<path d="M20.4353 22.1354C20.4353 18.3833 16.252 15.3333 12.4999 15.3333C8.74779 15.3333 4.56445 18.3833 4.56445 22.1354M12.4999 11.9333C13.7025 11.9333 14.8558 11.4556 15.7062 10.6052C16.5565 9.75488 17.0342 8.60155 17.0342 7.39896C17.0342 6.19637 16.5565 5.04303 15.7062 4.19267C14.8558 3.34231 13.7025 2.86458 12.4999 2.86458C11.2973 2.86458 10.1439 3.34231 9.29358 4.19267C8.44322 5.04303 7.96549 6.19637 7.96549 7.39896C7.96549 8.60155 8.44322 9.75488 9.29358 10.6052C10.1439 11.4556 11.2973 11.9333 12.4999 11.9333Z" stroke="#F4F4F4" stroke-width="1.5" stroke-linecap="round" stroke-linejoin="round"/>
</svg>
