<svg width="25" height="25" viewBox="0 0 25 25" fill="none" xmlns="http://www.w3.org/2000/svg">
<path d="M19.7915 7.29166H5.20817C4.9319 7.29166 4.66695 7.40141 4.4716 7.59676C4.27625 7.79211 4.1665 8.05706 4.1665 8.33333V21.875C4.1665 22.1513 4.27625 22.4162 4.4716 22.6116C4.66695 22.8069 4.9319 22.9167 5.20817 22.9167H19.7915C20.0678 22.9167 20.3327 22.8069 20.5281 22.6116C20.7234 22.4162 20.8332 22.1513 20.8332 21.875V8.33333C20.8332 8.05706 20.7234 7.79211 20.5281 7.59676C20.3327 7.40141 20.0678 7.29166 19.7915 7.29166Z" stroke="#F4F4F4" stroke-width="2" stroke-linecap="round" stroke-linejoin="round"/>
<path d="M8.854 9.375V5.72917C8.854 5.25039 8.94831 4.7763 9.13153 4.33397C9.31475 3.89163 9.5833 3.48972 9.92184 3.15117C10.2604 2.81263 10.6623 2.54407 11.1046 2.36085C11.547 2.17763 12.0211 2.08333 12.4998 2.08333C12.9786 2.08333 13.4527 2.17763 13.895 2.36085C14.3374 2.54407 14.7393 2.81263 15.0778 3.15117C15.4164 3.48972 15.6849 3.89163 15.8681 4.33397C16.0514 4.7763 16.1457 5.25039 16.1457 5.72917V9.375" stroke="#F4F4F4" stroke-width="2" stroke-linecap="round" stroke-linejoin="round"/>
</svg>
